<svg xmlns="http://www.w3.org/2000/svg" xmlns:ev="http://www.w3.org/2001/xml-events" xmlns:xlink="http://www.w3.org/1999/xlink" width="816" height="11in" class="st9" color-interpolation-filters="sRGB" viewBox="0 0 612 792" xml:space="preserve"><title>Basic Flowchart Template</title><desc>Create flowcharts, top-down diagrams, information tracking diagrams, process planning diagrams, and structure prediction diagrams. Contains connectors and links.</desc><style type="text/css">.st1{fill:#d80073;stroke:#fff;stroke-linecap:round;stroke-linejoin:round;stroke-width:.5}.st2{fill:#000;font-family:Segoe UI;font-size:.666664em;font-weight:700}.st3{font-size:1em}.st4{fill:#1ba1e2;stroke:#fff;stroke-linecap:round;stroke-linejoin:round;stroke-width:.5}.st5,.st6{stroke:#000}.st5{marker-end:url(#mrkr4-28);stroke-linecap:round;stroke-linejoin:round;stroke-width:.5}.st6{fill:#000;fill-opacity:1;stroke-opacity:1;stroke-width:.16556291390728}.st7{fill:#fff;stroke:none;stroke-linecap:butt;stroke-width:7.2}.st8{fill:#393;stroke:#fff;stroke-linecap:round;stroke-linejoin:round;stroke-width:.5}.st9{fill:none;fill-rule:evenodd;font-size:12px;overflow:visible;stroke-linecap:square;stroke-miterlimit:3}</style><defs id="Markers"><g id="lend4"><path d="M 2 1 L 0 0 L 2 -1 L 2 1" style="stroke:none"/></g><marker id="mrkr4-28" class="st6" markerUnits="strokeWidth" orient="auto" overflow="visible" refX="-12.08"><use transform="scale(-6.04,-6.04)" xlink:href="#lend4"/></marker></defs><g><title>Page-1</title><g id="shape2-1" transform="translate(191.1,-418.5)"><title>Decision</title><desc>Can Azure Stack Hub connect to Azure?</desc><path d="M0 756 L45 720 L90 756 L45 792 L0 756 Z" class="st1"/><text x="15.82" y="748.8" class="st2">Can Azure Stack <tspan x="15.98" class="st3" dy="1.2em">Hub connect to </tspan><tspan x="32.34" class="st3" dy="1.2em">Azure?</tspan></text></g><g id="shape3-6" transform="translate(317.1,-418.5)"><title>Decision.3</title><desc>Can you use the Administrator portal?</desc><path d="M0 756 L45 720 L90 756 L45 792 L0 756 Z" class="st1"/><text x="15.13" y="748.8" class="st2">Can you use the <tspan x="18.7" class="st3" dy="1.2em">Administrator </tspan><tspan x="31.88" class="st3" dy="1.2em">portal?</tspan></text></g><g id="shape4-11" transform="translate(191.1,-301.5)"><title>Process.4</title><desc>Use Get-AzureStackLog</desc><rect width="90" height="72" x="0" y="720" class="st4"/><text x="28.9" y="753.6" class="st2">Use Get-<tspan x="17.02" class="st3" dy="1.2em">AzureStackLog</tspan></text></g><g id="shape5-15" transform="translate(317.1,-301.5)"><title>Process.5</title><desc>Use PowerShell to send logs now</desc><rect width="90" height="72" x="0" y="720" class="st4"/><text x="11.04" y="753.6" class="st2">Use PowerShell to <tspan x="18.1" class="st3" dy="1.2em">send logs now</tspan></text></g><g id="shape6-19" transform="translate(443.1,-418.2)"><title>Process.6</title><desc>Use the portal to send logs now</desc><rect width="90" height="72" x="0" y="720" class="st4"/><text x="3.46" y="753.6" class="st2">Use the portal to send <tspan x="28.02" class="st3" dy="1.2em">logs now</tspan></text></g><g id="shape8-23" transform="translate(281.1,-445.5)"><title>Dynamic connector.8</title><desc>Yes</desc><path d="M0 783 L29.96 783" class="st5"/><rect width="12.703" height="9.6" x="11.649" y="778.2" class="st7"/><text x="11.65" y="785.4" class="st2">Yes</text></g><g id="shape9-31" transform="translate(407.1,-463.35)"><title>Dynamic connector.9</title><desc>Yes</desc><path d="M0 800.85 L13.5 800.85 L13.5 801.15 L29.96 801.15" class="st5"/><rect width="12.703" height="9.6" x="11.499" y="796.35" class="st7"/><text x="11.5" y="803.55" class="st2">Yes</text></g><g id="shape10-38" transform="translate(227.1,-418.5)"><title>Dynamic connector.10</title><desc>No</desc><path d="M9 792 L9 830.96" class="st5"/><rect width="11.211" height="9.6" x="3.395" y="809.7" class="st7"/><text x="3.39" y="816.9" class="st2">No</text></g><g id="shape11-45" transform="translate(353.1,-418.5)"><title>Dynamic connector.11</title><desc>No</desc><path d="M9 792 L9 830.96" class="st5"/><rect width="11.211" height="9.6" x="3.395" y="809.7" class="st7"/><text x="3.39" y="816.9" class="st2">No</text></g><g id="shape13-52" transform="translate(78.9,-441)"><title>Start/End</title><desc>Start</desc><path d="M13.5 792 L58.5 792 A13.5 13.5 -180 0 0 58.5 765 L13.5 765 A13.5 13.5 -180 1 0 13.5 792 Z" class="st8"/><text x="26.9" y="780.9" class="st2">Start</text></g><g id="shape14-55" transform="translate(150.9,-445.5)"><title>Dynamic connector</title><path d="M0 783 L34.16 783" class="st5"/></g></g></svg>