<svg xmlns="http://www.w3.org/2000/svg" xmlns:xlink="http://www.w3.org/1999/xlink" width="1078" height="406" overflow="hidden"><defs><clipPath id="clip0"><path fill-rule="evenodd" d="M106 31 1184 31 1184 437 106 437Z" clip-rule="evenodd"/></clipPath></defs><g clip-path="url(#clip0)" transform="translate(-106 -31)"><rect width="1076" height="406" x="107" y="31" fill="#FFF"/><rect width="449" height="235" x="661.5" y="172.5" fill="#7F7F7F" stroke="#FFF" stroke-miterlimit="8"/><text fill="#FFF" font-family="Calibri,Calibri_MSFontService,sans-serif" font-size="21" font-weight="400" transform="translate(836.184 197)">Azure Stack Hub infrastructure</text><rect width="512" height="285" x="128.5" y="135.5" fill="none" stroke="#C00000" stroke-dasharray="12 9" stroke-miterlimit="8" stroke-width="3"/><text fill="#C00000" font-family="Calibri,Calibri_MSFontService,sans-serif" font-size="24" font-weight="400" transform="translate(144.713 162)">HW Partner Specific</text><rect width="134" height="67" x="385.5" y="161.5" fill="#C00000" stroke="#FFF" stroke-miterlimit="8"/><text fill="#FFF" font-family="Calibri,Calibri_MSFontService,sans-serif" font-size="24" font-weight="400" transform="translate(409.182 188)">Switches<tspan x="-11.18" y="29">(</tspan><tspan x="-3.847" y="29">ToR</tspan><tspan x="31.353" y="29">, BMC)</tspan></text><rect width="134" height="67" x="381.5" y="241.5" fill="#C00000" stroke="#FFF" stroke-miterlimit="8"/><rect width="133" height="68" x="365.5" y="254.5" fill="#C00000" stroke="#FFF" stroke-miterlimit="8"/><rect width="134" height="67" x="342.5" y="266.5" fill="#C00000" stroke="#FFF" stroke-miterlimit="8"/><text fill="#FFF" font-family="Calibri,Calibri_MSFontService,sans-serif" font-size="19" font-weight="400" transform="translate(372.052 294)">Hardware <tspan x="-10.24" y="23">Partner VMs</tspan></text><rect width="275" height="49" x="244.5" y="353.5" fill="#C00000" stroke="#FFF" stroke-miterlimit="8"/><text fill="#FFF" font-family="Calibri,Calibri_MSFontService,sans-serif" font-size="24" font-weight="400" transform="translate(264.133 385)">Hardware Lifecycle Host</text><rect width="512" height="285" x="649.5" y="135.5" fill="none" stroke="#4472C4" stroke-dasharray="12 9" stroke-miterlimit="8" stroke-width="3"/><rect width="134" height="42" x="670.5" y="182.5" fill="#4472C4" stroke="#FFF" stroke-miterlimit="8"/><text fill="#FFF" font-family="Calibri,Calibri_MSFontService,sans-serif" font-size="19" font-weight="400" transform="translate(689.775 209)">Syslog Client</text><rect width="134" height="44" x="933.5" y="220.5" fill="#4472C4" stroke="#FFF" stroke-miterlimit="8"/><rect width="134" height="30" x="892.5" y="311.5" fill="#4472C4" stroke="#FFF" stroke-miterlimit="8"/><rect width="48" height="25" x="949.5" y="341.5" fill="#C00000" stroke="#FFF" stroke-miterlimit="8"/><rect width="133" height="31" x="870.5" y="318.5" fill="#4472C4" stroke="#FFF" stroke-miterlimit="8"/><rect width="48" height="25" x="926.5" y="349.5" fill="#C00000" stroke="#FFF" stroke-miterlimit="8"/><rect width="134" height="31" x="847.5" y="327.5" fill="#4472C4" stroke="#FFF" stroke-miterlimit="8"/><text fill="#FFF" font-family="Calibri,Calibri_MSFontService,sans-serif" font-size="19" font-weight="400" transform="translate(863.551 348)">Hyper<tspan x="45.833" y="0">-</tspan><tspan x="51.5" y="0">V Host</tspan></text><rect width="48" height="24" x="904.5" y="358.5" fill="#C00000" stroke="#FFF" stroke-miterlimit="8"/><text fill="#FFF" font-family="Calibri,Calibri_MSFontService,sans-serif" font-size="13" font-weight="400" transform="translate(915.212 374)">BMC</text><rect width="134" height="44" x="898.5" y="234.5" fill="#4472C4" stroke="#FFF" stroke-miterlimit="8"/><rect width="134" height="45" x="853.5" y="249.5" fill="#4472C4" stroke="#FFF" stroke-miterlimit="8"/><text fill="#FFF" font-family="Calibri,Calibri_MSFontService,sans-serif" font-size="19" font-weight="400" transform="translate(867.729 266)">Infrastructure <tspan x="35.28" y="23">VMs</tspan><tspan x="182.592" y="-104" fill="#4472C4" font-size="24">Microsoft</tspan></text><rect width="134" height="42" x="670.5" y="43.5" fill="#203864" stroke="#FFF" stroke-miterlimit="8"/><text fill="#FFF" font-family="Calibri,Calibri_MSFontService,sans-serif" font-size="19" font-weight="400" transform="translate(718.155 70)">SIEM<tspan x="30.086" y="52" fill="#000" font-size="16">Syslog message with CEF payload</tspan></text><path fill="#ED7D31" d="M0-2 77.8614-2 77.8614 130.622 75.8614 128.622 141.723 128.622 141.723 132.622 73.8614 132.622 73.8614 0 75.8614 2 0 2ZM139.723 124.622 151.723 130.622 139.723 136.622Z" transform="matrix(1 0 0 -1 519 194.622)"/><path fill="#ED7D31" d="M0-2 79.7677-2 79.7677 210.532 77.7677 208.532 145.535 208.532 145.535 212.532 75.7677 212.532 75.7677 0 77.7677 2 0 2ZM143.535 204.532 155.535 210.532 143.535 216.532Z" transform="matrix(1 0 0 -1 515 274.533)"/><path fill="#ED7D31" d="M0-2 77.8616-2 77.8616 313.406 75.8616 311.406 141.723 311.406 141.723 315.406 73.8616 315.406 73.8616 0 75.8616 2 0 2ZM139.723 307.406 151.723 313.406 139.723 319.406Z" transform="matrix(1 0 0 -1 519 377.406)"/><path fill="#203864" d="M847.002 344.464 735 344.464 735 234 739 234 739 342.464 737 340.464 847.002 340.464ZM731 236 737 224 743 236Z"/><path fill="#203864" d="M852.814 273.762 735 273.762 735 234 739 234 739 271.762 737 269.762 852.814 269.762ZM731 236 737 224 743 236Z"/><path fill="#ED7D31" d="M904.357 371.569 710.678 371.569 710.678 286 712.678 288 531 288 531 284 714.678 284 714.678 369.569 712.678 367.569 904.357 367.569ZM533 292 521 286 533 280Z"/><path fill="#203864" d="M0-2 50.4991-2 50.4991 0.000104987 48.4991-1.99989 86.9982-1.99989 86.9982 2.0001 46.4991 2.0001 46.4991 0 48.4991 2 0 2ZM84.9982-5.99989 96.9982 0.000104987 84.9982 6.0001Z" transform="matrix(-4.37114e-08 -1 -1 4.37114e-08 737 181.998)"/></g></svg>